<svg width="36" height="36" viewBox="0 0 36 36" fill="none" xmlns="http://www.w3.org/2000/svg">
<path d="M18 0.5C27.665 0.5 35.5 8.33502 35.5 18C35.5 27.665 27.665 35.5 18 35.5C8.33502 35.5 0.5 27.665 0.5 18C0.5 8.33502 8.33502 0.5 18 0.5Z" stroke="white"/>
<path d="M18.0002 14.834C16.2885 14.834 14.8335 16.2889 14.8335 18.0007C14.8335 19.7124 16.2885 21.1673 18.0002 21.1673C19.7119 21.1673 21.1668 19.7124 21.1668 18.0007C21.1668 16.2889 19.7119 14.834 18.0002 14.834Z" fill="white"/>
<path d="M22.0591 8.5H14.0273C10.9182 8.5 8.5 10.9182 8.5 13.9409V21.9727C8.5 25.0818 10.9182 27.5 14.0273 27.5H22.0591C25.0818 27.5 27.5 25.0818 27.5 21.9727V13.9409C27.5 10.9182 25.0818 8.5 22.0591 8.5ZM18 23.0091C15.2364 23.0091 13.0773 20.7636 13.0773 18.0864C13.0773 15.4091 15.2364 13.0773 18 13.0773C20.7636 13.0773 22.9227 15.3227 22.9227 18C22.9227 20.6773 20.7636 23.0091 18 23.0091ZM23.0955 14.1136C22.4909 14.1136 21.9727 13.5955 21.9727 12.9909C21.9727 12.3864 22.4909 11.8682 23.0955 11.8682C23.7 11.8682 24.2182 12.3864 24.2182 12.9909C24.2182 13.5955 23.7 14.1136 23.0955 14.1136Z" fill="white"/>
</svg>
