<?xml version="1.0" encoding="UTF-8"?>
<svg id="Layer_1" xmlns="http://www.w3.org/2000/svg" version="1.1" viewBox="0 0 130.41 35.52">
  <!-- Generator: Adobe Illustrator 29.6.1, SVG Export Plug-In . SVG Version: 2.1.1 Build 9)  -->
  <defs>
    <style>
      .st0 {
        fill: #d5b28a;
      }
    </style>
  </defs>
  <path class="st0" d="M22.9,32.06v2.98H0V.96h22.46v2.98H3.36v12.29h16.66v2.83H3.36v13.01h19.54Z"/>
  <path class="st0" d="M26.16,22.68c0-2.35.49-4.51,1.46-6.47s2.33-3.52,4.06-4.7c1.73-1.18,3.7-1.77,5.9-1.77,2.08,0,3.94.55,5.59,1.66,1.65,1.1,2.94,2.44,3.86,4.01V0h3.26v31.1c0,.45.1.78.29.98.19.21.48.33.86.36v2.59c-.64.1-1.14.13-1.49.1-.67-.03-1.26-.3-1.78-.82-.51-.51-.77-1.07-.77-1.68v-2.45c-.99,1.63-2.34,2.93-4.03,3.89-1.7.96-3.46,1.44-5.28,1.44-1.73,0-3.32-.35-4.78-1.05-1.46-.7-2.72-1.65-3.79-2.86-1.07-1.21-1.9-2.59-2.5-4.13-.59-1.54-.89-3.14-.89-4.8ZM47.04,26.49v-7.67c-.42-1.14-1.09-2.18-2.02-3.12-.93-.94-1.98-1.68-3.14-2.24-1.17-.56-2.33-.83-3.48-.83-1.34,0-2.56.28-3.65.83-1.09.56-2.02,1.31-2.81,2.26-.78.95-1.38,2.03-1.8,3.24-.42,1.21-.62,2.45-.62,3.72,0,1.33.23,2.61.7,3.81.46,1.21,1.13,2.28,1.99,3.22.86.94,1.86,1.66,2.98,2.17s2.34.76,3.65.76c.83,0,1.7-.16,2.59-.48.9-.32,1.75-.75,2.57-1.31.82-.56,1.5-1.21,2.04-1.98.54-.76.88-1.56,1.01-2.38Z"/>
  <path class="st0" d="M68.5,35.52c-1.79,0-3.46-.34-4.99-1.03-1.54-.69-2.86-1.63-3.98-2.82-1.12-1.2-1.99-2.57-2.62-4.14s-.94-3.24-.94-5.02c0-2.32.54-4.45,1.61-6.38,1.07-1.94,2.55-3.49,4.44-4.64,1.89-1.16,4.03-1.74,6.43-1.74s4.62.59,6.46,1.76,3.29,2.73,4.34,4.65c1.06,1.92,1.58,4.03,1.58,6.32v.74c0,.24-.02.42-.05.55h-21.41c.16,1.78.66,3.37,1.51,4.75.85,1.38,1.95,2.48,3.31,3.29,1.36.81,2.84,1.22,4.44,1.22s3.18-.42,4.63-1.25,2.47-1.92,3.05-3.26l2.83.77c-.51,1.18-1.3,2.26-2.35,3.22s-2.3,1.7-3.72,2.23c-1.42.53-2.95.79-4.58.79ZM59.28,21.41h18.48c-.13-1.8-.62-3.39-1.46-4.75-.85-1.36-1.95-2.43-3.31-3.21s-2.86-1.16-4.49-1.16-3.12.39-4.46,1.16c-1.34.78-2.44,1.85-3.29,3.23-.85,1.38-1.34,2.95-1.46,4.73Z"/>
  <path class="st0" d="M86.02,0h3.26v29.55c0,1.26.22,2.08.67,2.46.45.39.99.58,1.63.58.58,0,1.15-.06,1.73-.19s1.07-.26,1.49-.38l.58,2.64c-.61.26-1.35.46-2.23.62-.88.16-1.64.24-2.28.24-1.47,0-2.65-.44-3.53-1.3-.88-.87-1.32-2.06-1.32-3.57V0Z"/>
  <path class="st0" d="M98.93,4.8V0h3.26v4.8h-3.26ZM98.93,35.04V10.03h3.26v25.01h-3.26Z"/>
  <path class="st0" d="M130.41,35.04h-3.26v-13.88c0-2.92-.43-5.06-1.3-6.41-.86-1.35-2.22-2.03-4.08-2.03-1.28,0-2.54.31-3.79.93s-2.34,1.46-3.29,2.52c-.94,1.06-1.62,2.28-2.04,3.64v15.23h-3.26V10.13h2.98v5.68c.67-1.21,1.55-2.27,2.64-3.17,1.09-.91,2.32-1.61,3.7-2.12,1.38-.51,2.8-.76,4.27-.76,1.38,0,2.54.25,3.5.76.96.51,1.73,1.23,2.3,2.17.58.94.99,2.07,1.25,3.39.26,1.32.38,2.79.38,4.42v14.56Z"/>
</svg>