<svg width="36" height="36" viewBox="0 0 36 36" fill="none" xmlns="http://www.w3.org/2000/svg">
<path d="M18 0.5C27.665 0.5 35.5 8.33502 35.5 18C35.5 27.665 27.665 35.5 18 35.5C8.33502 35.5 0.5 27.665 0.5 18C0.5 8.33502 8.33502 0.5 18 0.5Z" stroke="white"/>
<path d="M11.7675 16.8926C11.5277 16.8926 11.3147 16.987 11.1549 17.1624C10.9818 17.3379 10.9019 17.5537 10.9019 17.8101C10.9019 18.0665 10.9818 18.2689 11.1549 18.4578C11.328 18.6332 11.5277 18.7277 11.7675 18.7277C12.0072 18.7277 12.2202 18.6332 12.3933 18.4578C12.5665 18.2824 12.6597 18.0665 12.6597 17.8101C12.6597 17.5537 12.5665 17.3379 12.3933 17.1624C12.2202 16.9735 12.0205 16.8926 11.7675 16.8926Z" fill="white"/>
<path d="M19.2386 16.8789C18.9989 16.8789 18.7859 16.9734 18.6261 17.1488C18.4529 17.3242 18.373 17.5401 18.373 17.7964C18.373 18.0528 18.4529 18.2552 18.6261 18.4441C18.7992 18.6195 18.9989 18.714 19.2386 18.714C19.4783 18.714 19.6914 18.6195 19.8645 18.4441C20.0377 18.2687 20.1309 18.0528 20.1309 17.7964C20.1309 17.5401 20.0377 17.3377 19.8645 17.1488C19.7047 16.9599 19.4917 16.8789 19.2386 16.8789Z" fill="white"/>
<path d="M24.2323 16.8926C23.9926 16.8926 23.7795 16.987 23.6197 17.1624C23.4466 17.3379 23.3667 17.5537 23.3667 17.8101C23.3667 18.0665 23.4466 18.2689 23.6197 18.4578C23.7928 18.6332 23.9926 18.7277 24.2323 18.7277C24.472 18.7277 24.6851 18.6332 24.8582 18.4578C25.0313 18.2824 25.1245 18.0665 25.1245 17.8101C25.1245 17.5537 25.0313 17.3379 24.8582 17.1624C24.6851 16.9735 24.472 16.8926 24.2323 16.8926Z" fill="white"/>
<path d="M26.4431 10.2266H9.55729C8.26555 10.2266 7.2002 11.306 7.2002 12.6149V22.2895C7.2002 23.5984 8.26555 24.6778 9.55729 24.6778H16.1891C16.1891 24.6778 17.4675 28.2266 17.9336 28.2266C18.3997 28.2266 19.7847 24.6778 19.7847 24.6778H26.4431C27.7348 24.6778 28.8002 23.5984 28.8002 22.2895V12.6149C28.8002 11.306 27.7348 10.2266 26.4431 10.2266ZM13.4725 19.1591C13.1395 19.5369 12.6202 19.6988 12.0609 19.6988C11.5548 19.6988 11.1819 19.5504 10.9156 19.3345H10.9023V19.6044H9.63719V14.0047H10.9023V16.1501H10.9289C11.2752 15.8532 11.7279 15.7588 12.2606 15.7318C12.7134 15.7183 13.1928 16.0017 13.4858 16.339C13.7654 16.6763 13.9785 17.2026 13.9785 17.7828C13.9785 18.417 13.8187 18.7813 13.4725 19.1591ZM16.2024 19.6583H14.9107C14.9107 19.6583 14.9107 16.7168 14.9107 16.1906C14.9107 15.3945 14.2848 15.2865 14.2848 15.2865V13.8967C14.2848 13.8967 16.0959 14.0047 16.2024 16.2311C16.2024 16.8652 16.2024 19.6583 16.2024 19.6583ZM21.2762 18.5924C21.1696 18.8488 21.0098 19.0646 20.7967 19.267C20.597 19.4559 20.3573 19.6044 20.0909 19.7123C19.8246 19.8203 19.545 19.8742 19.252 19.8742C18.959 19.8742 18.6794 19.8203 18.4263 19.7123C18.16 19.6044 17.9203 19.4559 17.7205 19.267C17.5075 19.0646 17.3477 18.8353 17.2411 18.5924C17.1346 18.3495 17.0813 18.0796 17.0813 17.7963C17.0813 17.5129 17.1346 17.2565 17.2411 17.0002C17.3477 16.7573 17.5075 16.5279 17.7205 16.3255C17.9336 16.1366 18.16 15.9882 18.4263 15.8802C18.6927 15.7723 18.9723 15.7183 19.252 15.7183C19.545 15.7183 19.8246 15.7723 20.0909 15.8802C20.3573 15.9882 20.597 16.1366 20.7967 16.3255C21.0098 16.5279 21.1563 16.7438 21.2762 17.0002C21.3827 17.2565 21.436 17.5129 21.436 17.7963C21.436 18.0796 21.3827 18.336 21.2762 18.5924ZM26.3632 19.1456C26.3632 20.1306 26.1768 20.7243 25.7506 21.1426C25.2313 21.6419 24.4988 21.6688 23.8863 21.5879V20.5759C24.4056 20.6299 25.1114 20.279 25.1114 19.6044V19.348H25.0981C24.8051 19.7528 24.3923 19.9012 23.8197 19.9012C23.3003 19.9012 22.8475 19.7123 22.5413 19.348C22.235 18.9837 22.0885 18.4979 22.0885 17.8907C22.0885 17.2026 22.2616 16.6628 22.5945 16.258C22.9408 15.8532 23.4202 15.6643 23.9795 15.6643C24.4722 15.6643 24.7918 15.7858 25.0981 16.0691H25.1114V15.7588H26.3765V19.1456H26.3632Z" fill="white"/>
</svg>
