<svg width="36" height="36" viewBox="0 0 36 36" fill="none" xmlns="http://www.w3.org/2000/svg">
<path d="M18 0.5C27.665 0.5 35.5 8.33502 35.5 18C35.5 27.665 27.665 35.5 18 35.5C8.33502 35.5 0.5 27.665 0.5 18C0.5 8.33502 8.33502 0.5 18 0.5Z" stroke="white"/>
<path d="M18.002 10.25C18.0129 10.25 24.8797 10.2505 26.5977 10.7158C27.5446 10.9681 28.2897 11.7172 28.542 12.6719C28.9999 14.3989 28.9961 18 28.9961 18C28.9961 18.0252 28.9944 21.6073 28.5381 23.3281C28.2858 24.2789 27.5407 25.0281 26.5938 25.2842C24.8781 25.7459 17.998 25.7461 17.998 25.7461C17.9875 25.7461 11.1166 25.7456 9.40234 25.2842C8.45544 25.0319 7.71026 24.2828 7.45801 23.3281C7.00169 21.6073 7.00001 18.0252 7 18C7 18 7.00016 14.3989 7.46191 12.668C7.71416 11.7172 8.45935 10.968 9.40625 10.7119C11.1218 10.2501 18.002 10.25 18.002 10.25ZM15.751 21.2715L21.502 18L15.751 14.7285V21.2715Z" fill="white"/>
</svg>
